<svg xmlns="http://www.w3.org/2000/svg" xmlns:xlink="http://www.w3.org/1999/xlink" version="1.1"
	viewBox="0 0 1080 1080" xml:space="preserve">
<desc>Created with Fabric.js 5.2.4</desc>
<defs>
</defs>
<g transform="matrix(1 0 0 1 540 540)" id="b282bd49-08f1-4a80-b17e-c71ae37dcb55"  >
<rect style="stroke: none; stroke-width: 1; stroke-dasharray: none; stroke-linecap: butt; stroke-dashoffset: 0; stroke-linejoin: miter; stroke-miterlimit: 4; fill-rule: nonzero; opacity: 1; visibility: hidden;" vector-effect="non-scaling-stroke"  x="-540" y="-540" rx="0" ry="0" width="1080" height="1080" />
</g>
<g transform="matrix(1 0 0 1 540 540)" id="a21f9a35-3f69-4994-a0c4-2a26ac2c3524"  >
</g>
<g transform="matrix(10.8 0 0 10.8 540 659.62)"  >
<g style=""   >
		<g transform="matrix(1 0 0 1 -40.57 -25.49)"  >
<polygon style="stroke: none; stroke-width: 1; stroke-dasharray: none; stroke-linecap: butt; stroke-dashoffset: 0; stroke-linejoin: miter; stroke-miterlimit: 4; fill-rule: nonzero; opacity: 1;" vector-effect="non-scaling-stroke"  points="6.79,-13.57 -6.79,-13.57 -6.79,0 -6.79,13.57 6.79,13.57 6.79,0 " />
</g>
		<g transform="matrix(1 0 0 1 -27 -5.14)"  >
<rect style="stroke: none; stroke-width: 1; stroke-dasharray: none; stroke-linecap: butt; stroke-dashoffset: 0; stroke-linejoin: miter; stroke-miterlimit: 4; fill-rule: nonzero; opacity: 1;" vector-effect="non-scaling-stroke"  x="-6.7845" y="-6.785" rx="0" ry="0" width="13.569" height="13.57" />
</g>
		<g transform="matrix(1 0 0 1 13.57 -39.06)"  >
<polygon style="stroke: none; stroke-width: 1; stroke-dasharray: none; stroke-linecap: butt; stroke-dashoffset: 0; stroke-linejoin: miter; stroke-miterlimit: 4; fill-rule: nonzero; opacity: 1;" vector-effect="non-scaling-stroke"  points="-6.64,13.57 -6.64,0 6.64,0 20.21,0 20.21,-13.57 6.64,-13.57 -6.93,-13.57 -6.93,0 -20.21,0 -20.21,13.57 " />
</g>
		<g transform="matrix(1 0 0 1 -20.21 -45.85)"  >
<polygon style="stroke: none; stroke-width: 1; stroke-dasharray: none; stroke-linecap: butt; stroke-dashoffset: 0; stroke-linejoin: miter; stroke-miterlimit: 4; fill-rule: nonzero; opacity: 1;" vector-effect="non-scaling-stroke"  points="13.57,6.78 13.57,-6.78 0,-6.78 -13.57,-6.78 -13.57,6.78 0,6.78 " />
</g>
		<g transform="matrix(1 0 0 1 40.57 -25.49)"  >
<polygon style="stroke: none; stroke-width: 1; stroke-dasharray: none; stroke-linecap: butt; stroke-dashoffset: 0; stroke-linejoin: miter; stroke-miterlimit: 4; fill-rule: nonzero; opacity: 1;" vector-effect="non-scaling-stroke"  points="-6.79,-13.57 -6.79,0 -6.79,13.57 6.79,13.57 6.79,0 6.79,-13.57 " />
</g>
		<g transform="matrix(1 0 0 1 27 -5.14)"  >
<rect style="stroke: none; stroke-width: 1; stroke-dasharray: none; stroke-linecap: butt; stroke-dashoffset: 0; stroke-linejoin: miter; stroke-miterlimit: 4; fill-rule: nonzero; opacity: 1;" vector-effect="non-scaling-stroke"  x="-6.785" y="-6.785" rx="0" ry="0" width="13.57" height="13.57" />
</g>
		<g transform="matrix(1 0 0 1 0 15.08)"  >
<polygon style="stroke: none; stroke-width: 1; stroke-dasharray: none; stroke-linecap: butt; stroke-dashoffset: 0; stroke-linejoin: miter; stroke-miterlimit: 4; fill-rule: nonzero; opacity: 1;" vector-effect="non-scaling-stroke"  points="6.64,-0.14 -6.64,-0.14 -6.64,-13.43 -20.21,-13.43 -20.21,0.14 -6.81,0.14 -6.81,13.43 6.76,13.43 6.76,0.14 20.21,0.14 20.21,-13.43 6.64,-13.43 " />
</g>
</g>
</g>
</svg>