<?xml version="1.0" encoding="utf-8"?>
<!-- Generator: Adobe Illustrator 27.3.1, SVG Export Plug-In . SVG Version: 6.00 Build 0)  -->
<svg version="1.1" xmlns="http://www.w3.org/2000/svg" xmlns:xlink="http://www.w3.org/1999/xlink" x="0px" y="0px"
	 viewBox="0 0 288 288" style="enable-background:new 0 0 288 288;" xml:space="preserve">
<style type="text/css">
	.st0{fill:#A41F1A;}
	.st1{fill:#E42A24;}
	.st2{fill:none;}
</style>
<g id="_x38_">
	<g>
		<rect x="108" y="72" class="st0" width="9" height="18"/>
		<polygon class="st0" points="144,45 117,72 108,72 108,67.5 144,31.5 		"/>
		<polygon class="st1" points="108.2,53.6 108,67.5 144,31.5 144,18 		"/>
		<polygon class="st0" points="135,108 126,108 126,76.5 144,58.5 144,72 135,81 		"/>
		<polygon class="st1" points="144,85.5 135,94.5 135,81 144,72 		"/>
		<g>
			<polygon class="st2" points="144,117 117,117 126,126 135,126 			"/>
			<polygon class="st2" points="81,81 90,90 90,81 			"/>
			<polygon class="st1" points="54,54 72,72 72,54 			"/>
			<rect x="90" y="81" class="st1" width="9" height="9"/>
			<polygon class="st1" points="99,81 99,72 72,72 81,81 90,81 			"/>
			<polygon class="st0" points="117,90 99,90 90,90 99,99 117,99 			"/>
			<polygon class="st0" points="144,108 108,108 117,117 144,117 			"/>
			<polygon class="st0" points="144,117 135,126 130.5,130.5 137.2,137.2 144,130.5 			"/>
			<polygon class="st1" points="139.5,139.5 144,144 144,139.5 			"/>
			<line class="st1" x1="144" y1="144" x2="139.5" y2="139.5"/>
			<polygon class="st1" points="126,126 130.5,130.5 135,126 			"/>
		</g>
	</g>
</g>
<g id="_x37_">
	<g>
		<rect x="76.5" y="103.5" transform="matrix(-1.836970e-16 1 -1 -1.836970e-16 193.5 31.5)" class="st0" width="9" height="18"/>
		<polygon class="st0" points="45,144 72,117 72,108 67.5,108 31.5,144 		"/>
		<polygon class="st1" points="53.6,108.2 67.5,108 31.5,144 18,144 		"/>
		<polygon class="st0" points="108,135 108,126 76.5,126 58.5,144 72,144 81,135 		"/>
		<polygon class="st1" points="85.5,144 94.5,135 81,135 72,144 		"/>
		<g>
			<polygon class="st2" points="117,144 117,117 126,126 126,135 			"/>
			<polygon class="st2" points="81,81 90,90 81,90 			"/>
			<polygon class="st1" points="54,54 72,72 54,72 			"/>
			<rect x="81" y="90" class="st1" width="9" height="9"/>
			<polygon class="st1" points="81,99 72,99 72,72 81,81 81,90 			"/>
			<polygon class="st0" points="90,117 90,99 90,90 99,99 99,117 			"/>
			<polygon class="st0" points="108,144 108,108 117,117 117,144 			"/>
			<polygon class="st0" points="117,144 126,135 130.5,130.5 137.2,137.2 130.5,144 			"/>
			<polygon class="st1" points="139.5,139.5 144,144 139.5,144 			"/>
			<line class="st1" x1="144" y1="144" x2="139.5" y2="139.5"/>
			<polygon class="st1" points="126,126 130.5,130.5 126,135 			"/>
		</g>
	</g>
</g>
<g id="_x36_">
	<g>
		<rect x="76.5" y="166.5" transform="matrix(4.496942e-11 -1 1 4.496942e-11 -94.5 256.5)" class="st0" width="9" height="18"/>
		<polygon class="st0" points="45,144 72,171 72,180 67.5,180 31.5,144 		"/>
		<polygon class="st1" points="53.6,179.8 67.5,180 31.5,144 18,144 		"/>
		<polygon class="st0" points="108,153 108,162 76.5,162 58.5,144 72,144 81,153 		"/>
		<polygon class="st1" points="85.5,144 94.5,153 81,153 72,144 		"/>
		<g>
			<polygon class="st2" points="117,144 117,171 126,162 126,153 			"/>
			<polygon class="st2" points="81,207 90,198 81,198 			"/>
			<polygon class="st1" points="54,234 72,216 54,216 			"/>
			<rect x="81" y="189" class="st1" width="9" height="9"/>
			<polygon class="st1" points="81,189 72,189 72,216 81,207 81,198 			"/>
			<polygon class="st0" points="90,171 90,189 90,198 99,189 99,171 			"/>
			<polygon class="st0" points="108,144 108,180 117,171 117,144 			"/>
			<polygon class="st0" points="117,144 126,153 130.5,157.5 137.2,150.8 130.5,144 			"/>
			<polygon class="st1" points="139.5,148.5 144,144 139.5,144 			"/>
			<line class="st1" x1="144" y1="144" x2="139.5" y2="148.5"/>
			<polygon class="st1" points="126,162 130.5,157.5 126,153 			"/>
		</g>
	</g>
</g>
<g id="_x35_">
	<g>
		<rect x="108" y="198" class="st0" width="9" height="18"/>
		<polygon class="st0" points="144,243 117,216 108,216 108,220.5 144,256.5 		"/>
		<polygon class="st1" points="108.2,234.4 108,220.5 144,256.5 144,270 		"/>
		<polygon class="st0" points="135,180 126,180 126,211.5 144,229.5 144,216 135,207 		"/>
		<polygon class="st1" points="144,202.5 135,193.5 135,207 144,216 		"/>
		<g>
			<polygon class="st2" points="144,171 117,171 126,162 135,162 			"/>
			<polygon class="st2" points="81,207 90,198 90,207 			"/>
			<polygon class="st1" points="54,234 72,216 72,234 			"/>
			<rect x="90" y="198" class="st1" width="9" height="9"/>
			<polygon class="st1" points="99,207 99,216 72,216 81,207 90,207 			"/>
			<polygon class="st0" points="117,198 99,198 90,198 99,189 117,189 			"/>
			<polygon class="st0" points="144,180 108,180 117,171 144,171 			"/>
			<polygon class="st0" points="144,171 135,162 130.5,157.5 137.2,150.8 144,157.5 			"/>
			<polygon class="st1" points="139.5,148.5 144,144 144,148.5 			"/>
			<line class="st1" x1="144" y1="144" x2="139.5" y2="148.5"/>
			<polygon class="st1" points="126,162 130.5,157.5 135,162 			"/>
		</g>
	</g>
</g>
<g id="_x34_">
	<g>
		<rect x="171" y="198" transform="matrix(-1 -4.496948e-11 4.496948e-11 -1 351 414)" class="st0" width="9" height="18"/>
		<polygon class="st0" points="144,243 171,216 180,216 180,220.5 144,256.5 		"/>
		<polygon class="st1" points="179.8,234.4 180,220.5 144,256.5 144,270 		"/>
		<polygon class="st0" points="153,180 162,180 162,211.5 144,229.5 144,216 153,207 		"/>
		<polygon class="st1" points="144,202.5 153,193.5 153,207 144,216 		"/>
		<g>
			<polygon class="st2" points="144,171 171,171 162,162 153,162 			"/>
			<polygon class="st2" points="207,207 198,198 198,207 			"/>
			<polygon class="st1" points="234,234 216,216 216,234 			"/>
			<rect x="189" y="198" class="st1" width="9" height="9"/>
			<polygon class="st1" points="189,207 189,216 216,216 207,207 198,207 			"/>
			<polygon class="st0" points="171,198 189,198 198,198 189,189 171,189 			"/>
			<polygon class="st0" points="144,180 180,180 171,171 144,171 			"/>
			<polygon class="st0" points="144,171 153,162 157.5,157.5 150.8,150.8 144,157.5 			"/>
			<polygon class="st1" points="148.5,148.5 144,144 144,148.5 			"/>
			<line class="st1" x1="144" y1="144" x2="148.5" y2="148.5"/>
			<polygon class="st1" points="162,162 157.5,157.5 153,162 			"/>
		</g>
	</g>
</g>
<g id="_x33_">
	<g>
		<rect x="202.5" y="166.5" transform="matrix(4.496942e-11 -1 1 4.496942e-11 31.5 382.5)" class="st0" width="9" height="18"/>
		<polygon class="st0" points="243,144 216,171 216,180 220.5,180 256.5,144 		"/>
		<polygon class="st1" points="234.4,179.8 220.5,180 256.5,144 270,144 		"/>
		<polygon class="st0" points="180,153 180,162 211.5,162 229.5,144 216,144 207,153 		"/>
		<polygon class="st1" points="202.5,144 193.5,153 207,153 216,144 		"/>
		<g>
			<polygon class="st2" points="171,144 171,171 162,162 162,153 			"/>
			<polygon class="st2" points="207,207 198,198 207,198 			"/>
			<polygon class="st1" points="234,234 216,216 234,216 			"/>
			<rect x="198" y="189" class="st1" width="9" height="9"/>
			<polygon class="st1" points="207,189 216,189 216,216 207,207 207,198 			"/>
			<polygon class="st0" points="198,171 198,189 198,198 189,189 189,171 			"/>
			<polygon class="st0" points="180,144 180,180 171,171 171,144 			"/>
			<polygon class="st0" points="171,144 162,153 157.5,157.5 150.8,150.8 157.5,144 			"/>
			<polygon class="st1" points="148.5,148.5 144,144 148.5,144 			"/>
			<line class="st1" x1="144" y1="144" x2="148.5" y2="148.5"/>
			<polygon class="st1" points="162,162 157.5,157.5 162,153 			"/>
		</g>
	</g>
</g>
<g id="_x32_">
	<g>
		<rect x="202.5" y="103.5" transform="matrix(-1.836970e-16 1 -1 -1.836970e-16 319.5 -94.5)" class="st0" width="9" height="18"/>
		<polygon class="st0" points="243,144 216,117 216,108 220.5,108 256.5,144 		"/>
		<polygon class="st1" points="234.4,108.2 220.5,108 256.5,144 270,144 		"/>
		<polygon class="st0" points="180,135 180,126 211.5,126 229.5,144 216,144 207,135 		"/>
		<polygon class="st1" points="202.5,144 193.5,135 207,135 216,144 		"/>
		<g>
			<polygon class="st2" points="171,144 171,117 162,126 162,135 			"/>
			<polygon class="st2" points="207,81 198,90 207,90 			"/>
			<polygon class="st1" points="234,54 216,72 234,72 			"/>
			<rect x="198" y="90" class="st1" width="9" height="9"/>
			<polygon class="st1" points="207,99 216,99 216,72 207,81 207,90 			"/>
			<polygon class="st0" points="198,117 198,99 198,90 189,99 189,117 			"/>
			<polygon class="st0" points="180,144 180,108 171,117 171,144 			"/>
			<polygon class="st0" points="171,144 162,135 157.5,130.5 150.8,137.2 157.5,144 			"/>
			<polygon class="st1" points="148.5,139.5 144,144 148.5,144 			"/>
			<line class="st1" x1="144" y1="144" x2="148.5" y2="139.5"/>
			<polygon class="st1" points="162,126 157.5,130.5 162,135 			"/>
		</g>
	</g>
</g>
<g id="f">
	<polygon class="st1" points="234,54 216,72 216,54 	"/>
</g>
<g id="e">
	<polygon class="st1" points="179.8,53.6 180,67.5 144,31.5 144,18 	"/>
	<rect x="189" y="81" class="st1" width="9" height="9"/>
	<polygon class="st1" points="189,81 189,72 216,72 207,81 198,81 	"/>
</g>
<g id="d">
	<polygon class="st0" points="144,45 171,72 180,72 180,67.5 144,31.5 	"/>
	<polygon class="st0" points="171,90 189,90 198,90 189,99 171,99 	"/>
	<rect x="171" y="72" transform="matrix(-1 -4.496948e-11 4.496948e-11 -1 351 162)" class="st0" width="9" height="18"/>
</g>
<g id="c">
	<polygon class="st0" points="153,108 162,108 162,76.5 144,58.5 144,72 153,81 	"/>
	<polygon class="st1" points="144,85.5 153,94.5 153,81 144,72 	"/>
</g>
<g id="b">
	<polygon class="st0" points="144,108 180,108 171,117 144,117 	"/>
</g>
<g id="a">
	<polygon class="st0" points="144,117 153,126 157.5,130.5 150.8,137.2 144,130.5 	"/>
	<polygon class="st1" points="148.5,139.5 144,144 144,139.5 	"/>
	<polygon class="st1" points="162,126 157.5,130.5 153,126 	"/>
</g>
</svg>
